PathFileType	3	(X/Y/Z)	D:\Vicon Database\Healthy Subjects\S0040\Jan. 30, 2020\Force Plate Walk 10.trc
DataRate	CameraRate	NumFrames	NumMarkers	Units	OrigDataRate	OrigDataStartFrame	OrigNumFrames
100.0	100.0	6	53	mm	100.0	282	338	
Frame#	Time	right_foot_cluster2			right_foot_cluster3			sternum_cluster1			sternum_cluster2			sternum_cluster3			left_asis			right_asis			left_psis			right_psis			sacrum_cluster1			sacrum_cluster2			sacrum_cluster3			left_lat_femoral_epicondyle			left_anterior_thigh15			left_anterior_thigh25			left_anterior_thigh50			left_lateral_thigh25			left_lateral_thigh50			left_thigh_cluster1			left_thigh_cluster2			left_thigh_cluster3			left_fibular_head			left_tibial_tuberosity			left_anterior_shank30			left_lateral_malleolus			left_shank_cluster1			left_shank_cluster2			left_shank_cluster3			left_heel			left_metatarsal2			left_foot_cluster1			left_foot_cluster2			left_foot_cluster3			right_lat_femoral_epicondyle			right_anterior_thigh15			right_anterior_thigh25			right_anterior_thigh50			right_lateral_thigh25			right_lateral_thigh50			right_thigh_cluster1			right_thigh_cluster2			right_thigh_cluster3			right_fibular_head			right_tibial_tuberosity			right_lateral_distal_shank			right_anterior_shank30			right_lateral_malleolus			right_shank_cluster1			right_shank_cluster2			right_shank_cluster3			right_heel			right_metatarsal2			right_foot_cluster1			
		X1	Y1	Z1	X2	Y2	Z2	X3	Y3	Z3	X4	Y4	Z4	X5	Y5	Z5	X6	Y6	Z6	X7	Y7	Z7	X8	Y8	Z8	X9	Y9	Z9	X10	Y10	Z10	X11	Y11	Z11	X12	Y12	Z12	X13	Y13	Z13	X14	Y14	Z14	X15	Y15	Z15	X16	Y16	Z16	X17	Y17	Z17	X18	Y18	Z18	X19	Y19	Z19	X20	Y20	Z20	X21	Y21	Z21	X22	Y22	Z22	X23	Y23	Z23	X24	Y24	Z24	X25	Y25	Z25	X26	Y26	Z26	X27	Y27	Z27	X28	Y28	Z28	X29	Y29	Z29	X30	Y30	Z30	X31	Y31	Z31	X32	Y32	Z32	X33	Y33	Z33	X34	Y34	Z34	X35	Y35	Z35	X36	Y36	Z36	X37	Y37	Z37	X38	Y38	Z38	X39	Y39	Z39	X40	Y40	Z40	X41	Y41	Z41	X42	Y42	Z42	X43	Y43	Z43	X44	Y44	Z44	X45	Y45	Z45	X46	Y46	Z46	X47	Y47	Z47	X48	Y48	Z48	X49	Y49	Z49	X50	Y50	Z50	X51	Y51	Z51	X52	Y52	Z52	X53	Y53	Z53	
282	2.81	2282.054	165.21162	-256.30072	2283.9624	165.81363	-293.71973	2592.8291	1419.6577	-178.96683	2581.2295	1391.6671	-172.17812	2586.262	1394.4546	-209.77116	2616.1973	1036.6084	-56.178619	2634.7021	1052.6514	-306.51392	2784.4893	1066.0228	-98.99585	2797.196	1066.5775	-215.81859	2798.6304	1122.7637	-162.31761	2805.1211	1096.8879	-173.98941	2804.0703	1092.1267	-134.65865	2846.3276	548.85687	-35.786892	2726.5479	585.97931	-86.491409	2672.6973	660.46802	-69.2845	2626.4561	794.23322	-49.203739	2787.3652	689.98505	-13.413122	2726.5283	823.18359	13.757092	2747.2576	782.2558	18.492958	2758.8918	755.32159	15.084798	2721.1646	752.22858	18.709377	2876.0601	473.43936	-29.25527	2830.2251	441.42667	-84.4524	2961.6245	224.57243	-93.965347	3058.6248	141.66788	-64.974686	2855.5217	391.23041	-111.99508	2863.199	365.17584	-103.10976	2877.1868	371.64713	-138.97284	3143.4175	130.0452	-98.850685	2935.4148	61.323509	-103.60325	2976.0405	126.2157	-94.284233	2959.1951	102.37587	-86.036926	2953.6816	107.40804	-123.8704	2518.0422	537.89093	-319.64795	2474.2217	650.26898	-266.77072	2491.4536	726.07526	-265.74353	2541.6899	842.58551	-272.56378	2578.5132	684.14673	-350.845	2638.6409	821.58276	-375.1438	2624.188	768.82501	-381.43195	2603.4541	748.44739	-377.78763	2638.2041	732.98663	-370.43839	2505.2927	472.23734	-322.41504	2447.1453	483.25699	-281.34698	2427.8391	213.26973	-311.83957	2385.6213	243.0027	-269.86288	2383.6665	112.475	-298.37061	2432.2439	419.42313	-227.05104	2428.5122	390.8916	-220.00011	2407.854	396.30722	-250.38751	2435.2002	51.69479	-257.60098	2240.8154	149.00818	-266.56555	2309.8677	167.59081	-264.97839
283	2.82	2272.7151	156.77875	-253.93327	2274.7834	158.14706	-291.32764	2578.6194	1419.4719	-180.74103	2566.7229	1391.5612	-173.86354	2572.2922	1394.3364	-211.62007	2599.8542	1035.9633	-57.921654	2617.8721	1051.8572	-308.48877	2768.1785	1065.3627	-101.12241	2780.5876	1065.851	-218.03915	2782.3621	1122.1727	-164.55304	2788.6331	1096.2272	-176.16289	2787.7893	1091.389	-136.93968	2829.7437	548.18304	-36.986588	2709.2073	584.82965	-86.851807	2655.9954	659.54132	-69.824707	2610.2742	793.74579	-50.385593	2771.1492	689.23877	-15.103538	2710.6699	822.51624	11.82311	2730.9023	781.82611	17.185087	2743.0754	754.8573	13.190886	2705.4185	751.86871	16.884306	2860.354	473.27969	-29.806004	2815.7075	439.2861	-84.549156	2953.0508	226.82715	-93.328621	3052.3025	146.38744	-63.977943	2841.7432	390.22263	-112.08372	2850.8606	364.08817	-103.20298	2864.0081	371.01007	-139.08246	3137.4265	138.92212	-98.587502	2933.1953	60.21484	-103.09617	2970.082	126.92558	-93.322571	2954.2119	102.14234	-84.677444	2948.7847	107.056	-122.88284	2501.7004	536.59741	-320.51389	2456.7583	650.35394	-268.71552	2474.6978	726.19354	-266.6633	2525.2517	841.77795	-273.33713	2561.5122	683.34723	-351.39728	2622.1067	820.50391	-376.20651	2607.6294	768.03363	-382.86169	2586.8584	747.86731	-378.96075	2621.5627	731.88043	-371.92993	2490.7893	470.60376	-322.6185	2432.2175	480.73892	-282.29221	2419.9177	209.89748	-309.87149	2376.0957	239.02777	-269.03772	2377.5789	109.72069	-297.20081	2418.1824	416.57358	-227.49185	2415.2715	388.20456	-220.09413	2394.4749	392.85919	-250.51326	2431.4451	52.555729	-256.34753	2232.4873	138.79735	-264.40857	2300.5432	160.86427	-262.50934
284	2.83	2264.4668	149.59029	-252.04756	2266.062	150.97961	-289.47855	2563.8855	1419.9105	-182.57234	2552.0015	1392.088	-175.52341	2557.4395	1394.6436	-213.18581	2583.3804	1035.6741	-59.784824	2600.5042	1051.4386	-310.40399	2751.6648	1064.9121	-103.45621	2763.7205	1065.515	-220.50128	2765.9058	1121.7507	-166.94601	2771.8142	1095.8224	-178.70329	2771.1514	1091.066	-139.36082	2811.6577	547.14899	-38.213688	2690.8599	583.58398	-87.364288	2638.2607	658.92218	-70.56823	2593.2456	793.55554	-51.726814	2753.9653	688.36932	-16.834145	2694.2007	821.92999	9.7126026	2714.5313	781.20087	14.571189	2726.3911	754.3324	11.175589	2688.7056	751.58179	15.393692	2843.2937	473.02887	-30.386599	2798.958	437.38751	-84.874718	2943.3838	229.27116	-92.650162	3044.9128	151.69572	-63.035191	2826.9021	388.72974	-112.15517	2836.6821	363.15225	-102.92369	2849.4248	369.95929	-138.99696	3130.1138	148.8297	-98.293854	2930.4363	59.345093	-102.63428	2963.0684	127.616	-92.681717	2949.269	101.92798	-84.556671	2943.0454	106.64397	-122.08704	2486.4048	535.65466	-321.3287	2439.4092	649.53314	-270.55249	2457.5784	725.84625	-267.68033	2508.3403	841.11212	-274.48157	2545.49	682.32056	-351.61292	2605.6006	819.36871	-377.34509	2591.1755	766.87097	-383.53381	2570.6658	746.70862	-379.65204	2605.5061	730.99213	-372.81192	2476.6716	469.04858	-322.9252	2417.8049	478.32529	-282.94315	2411.7271	207.40269	-308.60995	2366.2639	235.53922	-268.5657	2370.4795	107.12103	-296.56161	2405.4856	413.98096	-227.45155	2402.7646	385.61252	-219.92278	2381.9861	389.6022	-250.30035	2427.7471	53.569408	-256.18973	2224.9795	129.77425	-262.08984	2291.9377	155.06834	-260.67685
285	2.84	2256.9287	142.13243	-250.47455	2257.8918	143.54965	-288.04919	2549.4036	1420.7152	-184.27025	2537.2498	1392.8853	-177.30618	2542.0066	1395.6466	-214.92921	2566.7473	1035.7664	-61.681217	2583.0657	1051.161	-312.26773	2735.0193	1064.6991	-105.75316	2746.5374	1065.3999	-223.07933	2749.0386	1121.863	-169.40463	2754.7634	1095.8579	-181.21124	2754.2832	1091.1061	-141.92348	2792.0176	545.91742	-39.316414	2671.2231	582.34656	-88.002136	2619.4792	658.56732	-71.359215	2575.8708	793.64417	-53.310177	2735.7156	687.37329	-18.485676	2676.916	821.35577	7.6347919	2697.1216	780.89136	12.491821	2708.7522	753.77313	9.1492567	2671.0051	751.29688	13.485632	2824.8269	472.77823	-30.849857	2780.7842	435.20798	-85.09391	2932.3569	231.8316	-92.052475	3036.0271	157.07133	-62.123722	2810.4587	387.5224	-112.27978	2821.3171	361.83783	-102.62457	2833.3853	368.93906	-138.9417	3120.9553	159.63728	-98.144463	2927.8064	58.060017	-102.59288	2954.6025	128.18835	-91.907188	2943.4875	100.60477	-84.272713	2936.4214	105.68325	-121.578	2472.0745	534.75403	-322.12137	2423.3284	647.96912	-271.85077	2440.7102	725.15063	-268.84146	2491.1619	840.47974	-276.09985	2530.5259	681.11365	-351.32678	2589.0264	818.78345	-378.7908	2575.3796	765.85223	-384.26556	2555.0645	745.44708	-379.97961	2589.6516	730.18396	-373.69958	2463.2371	467.56891	-323.46304	2403.999	476.36047	-283.44135	2402.4814	205.43718	-308.82272	2356.6248	232.63747	-268.44562	2364.1399	104.35857	-296.48892	2393.312	411.70883	-227.95085	2390.769	383.10489	-220.05721	2369.9802	386.65182	-250.51877	2423.6267	54.366108	-256.56735	2218.2188	120.54476	-260.05234	2284.0461	148.43271	-259.75702
286	2.85	2249.9812	134.61435	-249.1057	2250.521	136.00848	-286.72519	2535.0803	1421.5132	-186.13712	2522.5203	1393.9225	-179.0249	2526.9778	1396.8499	-216.7382	2550.0754	1036.2319	-63.542404	2565.4265	1051.3309	-313.99225	2718.3337	1064.8315	-108.08227	2729.3052	1065.6072	-225.61382	2730.4797	1121.8008	-172.40952	2737.699	1096.2347	-183.70581	2737.3816	1091.3905	-144.45187	2770.9077	544.87701	-39.834221	2649.6838	581.25128	-88.482216	2599.6011	658.41638	-72.213333	2557.7363	794.06665	-54.887749	2716.5364	686.34509	-19.935465	2659.1379	820.96918	5.5070443	2679.0149	780.43274	10.244267	2690.3274	753.28503	7.2183905	2652.5859	751.19391	11.662416	2804.8604	472.39267	-31.112009	2761.9358	433.31097	-85.279343	2919.8108	234.51514	-91.177444	3025.7327	163.01219	-61.147499	2792.7295	385.77261	-111.84753	2804.1362	360.86911	-101.81637	2815.7708	367.79346	-138.39485	3109.8108	171.50014	-97.904343	2924.2603	57.378605	-102.30246	2945.4766	128.14659	-91.131142	2936.4119	99.515121	-83.614189	2929.1165	104.25774	-121.0561	2458.906	533.65265	-322.89853	2408.7534	646.62555	-272.14459	2424.876	723.80737	-270.39038	2473.8311	840.06213	-278.04361	2516.4004	680.0423	-350.6264	2572.864	818.18878	-380.07651	2559.717	765.20886	-384.99997	2539.4551	744.65881	-380.68564	2574.7141	729.74451	-374.11496	2450.0142	466.73849	-324.65393	2390.595	474.66577	-283.63461	2393.2974	203.40335	-309.21915	2347.875	229.77188	-267.8522	2358.6472	102.16369	-296.81976	2381.7295	409.72235	-228.34178	2379.5098	381.07321	-220.29945	2358.2766	384.42322	-250.68423	2421.165	55.953991	-256.9133	2212.1736	111.29568	-258.32959	2276.8118	142.10542	-258.76965
287	2.86	2243.5952	128.13167	-248.18028	2244.0071	129.49846	-285.81171	2520.3909	1422.7944	-187.80461	2507.7227	1395.3123	-180.73611	2512.8066	1397.87	-218.5211	2533.405	1036.9302	-65.465683	2547.6575	1051.8774	-315.73257	2701.6975	1065.15	-110.47617	2712.1011	1066.1935	-228.11557	2713.4065	1122.1779	-174.84326	2720.9585	1096.9213	-186.17238	2720.5254	1091.7825	-146.92174	2748.0076	543.20221	-40.365475	2626.22	579.86578	-88.85437	2578.4963	658.43634	-72.939697	2539.0466	794.81213	-56.39896	2696.0715	685.10571	-21.431717	2640.7129	820.54724	3.4329109	2660.1919	779.84229	8.2193232	2671.0713	752.75604	5.4247913	2633.3103	751.01123	9.9719725	2783.4458	471.78833	-31.022549	2740.7722	430.69089	-83.90004	2905.7136	237.5025	-90.186462	3013.7717	169.27168	-60.235466	2773.0229	383.9837	-110.96233	2785.5498	359.5491	-101.0061	2796.6479	366.53992	-137.61575	3096.4355	184.33961	-97.617767	2920.7729	56.980511	-101.87975	2936.0662	127.7016	-90.694786	2928.8953	99.262505	-82.761314	2920.9634	103.5684	-120.16465	2445.9478	532.72772	-323.79608	2394.9202	644.86212	-272.0303	2409.6606	722.34674	-272.17145	2456.5669	839.62091	-280.36765	2502.5444	679.36157	-351.68399	2556.446	817.60834	-380.74844	2544.5405	764.82025	-386.09753	2524.5618	744.02808	-381.6243	2559.7346	729.64691	-374.65076	2436.7944	465.81625	-325.80865	2377.5635	472.91293	-283.8605	2384.4158	201.58582	-309.30011	2339.3169	226.86371	-267.4606	2353.3633	100.34232	-296.68341	2370.2881	408.05429	-227.94261	2368.5906	379.17764	-220.17311	2347.3481	382.13779	-250.38344	2418.4155	57.290642	-256.43356	2206.6624	102.92973	-257.50546	2270.1155	136.5047	-257.94751
